<mxfile host="Electron" modified="2023-11-21T09:05:12.969Z" agent="Mozilla/5.0 (Windows NT 10.0; Win64; x64) AppleWebKit/537.36 (KHTML, like Gecko) draw.io/22.1.2 Chrome/114.0.5735.289 Electron/25.9.4 Safari/537.36" etag="Ejf-5mJ8S-QTkJckEPqf" version="22.1.2" type="device">
  <diagram name="Page 1" id="c7488fd3-1785-93aa-aadb-54a6760d102a">
    <mxGraphModel dx="1434" dy="884" grid="1" gridSize="10" guides="1" tooltips="1" connect="1" arrows="1" fold="1" page="1" pageScale="1" pageWidth="1100" pageHeight="850" background="none" math="0" shadow="0">
      <root>
        <object label="" kind="Process" id="0">
          <mxCell />
        </object>
        <object label="" kind="Participant" id="1">
          <mxCell parent="0" />
        </object>
        <object label="Composite Node 1" type="DocumentedNamedCompositeNode" semantic-id="composite-node-1" page-element="true" feature-map="container:&#xa;  self:&#xa;    - elements" id="ahY_jtxTiWudsnOmn1jQ-2">
          <mxCell style="swimlane;whiteSpace=wrap;html=1;" vertex="1" parent="1">
            <mxGeometry x="480" y="160" width="140" height="120" as="geometry" />
          </mxCell>
        </object>
        <object label="Node 1.1" type="DocumentedNamedNode" semantic-id="node-1-1" id="ahY_jtxTiWudsnOmn1jQ-1">
          <mxCell style="rounded=0;whiteSpace=wrap;html=1;" vertex="1" parent="ahY_jtxTiWudsnOmn1jQ-2">
            <mxGeometry x="10" y="40" width="120" height="60" as="geometry" />
          </mxCell>
        </object>
      </root>
    </mxGraphModel>
  </diagram>
</mxfile>
